<svg width="140" height="17" viewBox="0 0 140 17" fill="none" xmlns="http://www.w3.org/2000/svg">
<path d="M25.2619 0.936768C21.0231 0.936768 17.8328 4.34259 17.8328 8.58134C17.8328 12.8201 20.9962 16.2147 25.2619 16.2147C29.5276 16.2147 32.6887 12.8089 32.6887 8.58134C32.6887 4.35381 29.5253 0.936768 25.2619 0.936768ZM25.2619 13.9426C22.3432 13.9426 20.2733 11.583 20.2733 8.58134C20.2733 5.57964 22.3388 3.21779 25.2619 3.21779C28.185 3.21779 30.255 5.57739 30.255 8.58134C30.255 11.5853 28.185 13.9426 25.2619 13.9426ZM40.4657 1.07147H38.0522V16.089H47.0618V13.8214H40.4926V1.07147H40.4657ZM55.3754 9.65225H58.7812V7.37347H55.3754V3.35025H62.4026V1.07147H52.9619V16.089H62.5103V13.8214H55.3754V9.65225ZM85.0107 7.37347H78.8143V1.07147H76.4008V16.089H78.8143V9.65225H85.0085V16.089H87.422V1.07147H85.0085L85.0107 7.37347ZM137.595 1.07147V11.6369L131.668 1.07147H129.015V16.089H131.428V5.73904L137.346 16.089H140V1.07147H137.595ZM7.45373 13.9426C4.5351 13.9426 2.46737 11.583 2.46737 8.58134C2.46737 5.57964 4.53286 3.21779 7.45373 3.21779C9.279 3.21779 10.4577 4.02154 11.4231 5.2541L13.1406 3.70049C12.4634 2.83553 11.5957 2.13857 10.605 1.66387C9.61433 1.18918 8.52747 0.949573 7.42904 0.963709C3.19029 0.963709 0 4.36953 0 8.60828C0 12.847 3.16335 16.2416 7.42904 16.2416C8.68235 16.2519 9.9169 15.9369 11.012 15.3274C12.1072 14.7178 13.0255 13.8346 13.6772 12.764L11.8452 11.3518C11.102 12.8448 9.51923 13.9426 7.45373 13.9426ZM98.6587 1.07147L93.1178 16.089H95.6391L96.7616 12.9458H102.996L104.119 16.089H106.64L101.099 1.07147H98.6587ZM97.5586 10.6985L99.8643 4.2887L102.17 10.6985H97.5586ZM115.712 1.07147L110.163 16.089H112.684L113.806 12.9458H120.059L121.182 16.089H123.703L118.153 1.07147H115.712ZM114.615 10.6985L116.916 4.2887L119.195 10.6985H114.615Z" fill="#020D20" fill-opacity="0.43"/>
</svg>
