<svg width="141" height="32" viewBox="0 0 141 32" fill="none" xmlns="http://www.w3.org/2000/svg">
<path d="M30.3585 20.2211C31.3355 17.3605 31.4422 14.2743 30.665 11.353C30.3816 10.2876 29.9852 9.26145 29.4858 8.29085L27.4853 9.67287C25.6834 10.9196 23.9594 12.0981 22.0114 13.3254L21.3296 24.9256L20.3556 25.4808L19.0894 17.1726L18.2907 15.4584L15.0279 17.3479C13.4403 18.283 5.34636 22.2569 2.96981 23.3867V23.4062C2.76527 23.0945 2.57047 22.7731 2.39515 22.4322C4.56716 20.942 12.0572 15.9162 13.6643 15.0104L16.9661 13.1208L15.9142 11.5624L9.34947 6.32233L10.3235 5.75741L20.6965 11.017C21.9952 10.2897 23.2938 9.66638 24.5925 9.04302C25.2418 8.73134 25.8911 8.41966 26.5405 8.095L28.7729 7.05129C28.0065 5.85235 27.0723 4.75987 25.9924 3.80961C23.7231 1.81261 20.9125 0.533486 17.9162 0.134028C14.9198 -0.26543 11.8723 0.232727 9.15904 1.56549C6.44582 2.89825 4.18881 5.00574 2.67349 7.62139C1.15817 10.237 0.452621 13.2433 0.646081 16.26C0.839541 19.2767 1.92332 22.1682 3.76034 24.5689C5.59735 26.9696 8.10508 28.7715 10.9663 29.7468C14.8011 31.0539 18.998 30.7847 22.6344 28.9985C26.2708 27.2122 29.0491 24.0551 30.3585 20.2211Z" fill="#020D20" fill-opacity="0.43"/>
<path fill-rule="evenodd" clip-rule="evenodd" d="M137.693 11.8935V10.2182H140.615V25.4904H137.576V23.7567C136.984 24.4488 136.242 24.997 135.407 25.3598C134.571 25.7227 133.664 25.8906 132.755 25.8508C128.411 25.8508 125.625 22.3931 125.625 17.864C125.625 13.335 128.411 9.86755 132.755 9.86755C133.674 9.84179 134.588 10.0087 135.438 10.3577C136.289 10.7066 137.057 11.2298 137.693 11.8935ZM137.488 14.8934C137.021 14.2127 136.392 13.6593 135.657 13.2834C134.923 12.9075 134.106 12.721 133.281 12.7408C130.592 12.7408 128.742 15.0102 128.742 17.864C128.742 20.7179 130.524 23.0554 133.281 23.0554C134.129 23.0407 134.959 22.8114 135.695 22.389C136.431 21.9667 137.048 21.365 137.488 20.6399V14.8934Z" fill="#020D20" fill-opacity="0.43"/>
<path d="M119.898 5.0938C119.663 5.44597 119.537 5.85987 119.537 6.28326C119.536 6.56584 119.591 6.84586 119.699 7.10706C119.807 7.36826 119.965 7.60543 120.166 7.80479C120.366 8.00416 120.604 8.16174 120.865 8.26839C121.127 8.37504 121.407 8.42863 121.69 8.42604C122.113 8.42412 122.527 8.29681 122.878 8.06019C123.229 7.82357 123.502 7.48825 123.663 7.09654C123.823 6.70483 123.864 6.2743 123.781 5.85928C123.697 5.44426 123.492 5.06337 123.192 4.76467C122.892 4.46596 122.51 4.26285 122.095 4.18096C121.679 4.09906 121.249 4.14206 120.858 4.30453C120.467 4.46699 120.133 4.74164 119.898 5.0938Z" fill="#020D20" fill-opacity="0.43"/>
<path d="M120.093 25.4904H123.307V10.2181H120.093V25.4904Z" fill="#020D20" fill-opacity="0.43"/>
<path fill-rule="evenodd" clip-rule="evenodd" d="M117.015 4.54955H113.918L113.869 11.7474C113.24 11.1332 112.495 10.6506 111.677 10.3278C110.859 10.005 109.985 9.84858 109.106 9.86756C104.762 9.86756 101.976 13.335 101.976 17.8641C101.976 22.3931 104.762 25.8508 109.106 25.8508C110.024 25.8981 110.94 25.7339 111.785 25.3708C112.629 25.0077 113.379 24.4555 113.976 23.7567V25.4904H117.015V4.54955ZM112.031 13.2904C112.761 13.6661 113.385 14.2169 113.849 14.8934H113.879V20.6399C113.438 21.365 112.821 21.9667 112.086 22.3891C111.35 22.8114 110.519 23.0407 109.671 23.0554C106.915 23.0554 105.132 20.7179 105.132 17.8641C105.132 15.0103 106.983 12.7408 109.671 12.7408C110.491 12.7259 111.302 12.9148 112.031 13.2904Z" fill="#020D20" fill-opacity="0.43"/>
<path fill-rule="evenodd" clip-rule="evenodd" d="M93.113 25.88C94.4079 25.8962 95.6908 25.6303 96.8726 25.1008C97.9946 24.5743 98.9909 23.8138 99.7946 22.8704L97.983 20.864C97.3651 21.4976 96.6438 22.0213 95.8499 22.4126C95.019 22.8155 94.1045 23.0158 93.1812 22.997C92.0314 22.9955 90.9211 22.5772 90.0561 21.8196C89.191 21.0621 88.63 20.0166 88.4768 18.877H100.35C100.355 18.8447 100.355 18.8119 100.35 18.7796V17.679C100.35 13.3155 97.2233 9.7799 92.889 9.7799C88.5547 9.7799 85.3211 13.2668 85.3211 17.8446C85.2702 18.8927 85.4351 19.94 85.8055 20.9218C86.176 21.9035 86.744 22.7988 87.4745 23.5521C88.2049 24.3054 89.0823 24.9007 90.0522 25.3011C91.0221 25.7016 92.0639 25.8986 93.113 25.88ZM88.5547 16.3057H97.1648C97.0266 15.2697 96.5128 14.3205 95.721 13.6382C94.9293 12.956 93.9146 12.5881 92.8695 12.6045C91.7782 12.6248 90.7347 13.0561 89.9475 13.8122C89.2203 14.4664 88.7304 15.3433 88.5547 16.3057Z" fill="#020D20" fill-opacity="0.43"/>
<path fill-rule="evenodd" clip-rule="evenodd" d="M71.88 31.1786V23.9613C73.1472 25.1892 74.8492 25.8651 76.6136 25.8411C80.9576 25.8411 83.7529 22.3737 83.7529 17.8446C83.7529 13.3155 80.9576 9.84808 76.6136 9.84808C75.7044 9.81028 74.7987 9.98009 73.965 10.3446C73.1313 10.7092 72.3916 11.2588 71.802 11.9519V10.2182H68.7632V31.1786H71.88ZM73.7851 22.424C73.0489 22.0483 72.4177 21.4954 71.9481 20.8153V15.0784C72.392 14.3551 73.0112 13.7554 73.7484 13.3349C74.4856 12.9144 75.3169 12.6866 76.1655 12.6727C78.9219 12.6727 80.7043 15.0005 80.7043 17.8446C80.7043 20.6886 78.8538 22.9678 76.1655 22.9678C75.3392 22.9866 74.5212 22.7997 73.7851 22.424Z" fill="#020D20" fill-opacity="0.43"/>
<path d="M57.8252 17.64L52.439 10.2181H56.2571L59.8511 15.2732L63.4451 10.2181H67.2048L61.7894 17.6692L67.458 25.4612H63.6399L59.8024 20.0847L55.9746 25.4904H52.1371L57.8252 17.64Z" fill="#020D20" fill-opacity="0.43"/>
<path d="M50.1988 16.5686H42.2608V22.4905H50.9391V25.5391H38.8031V5.08523H50.8806V8.08514H42.2608V13.5298H50.1988V16.5686Z" fill="#020D20" fill-opacity="0.43"/>
</svg>
