<svg width="75" height="31" viewBox="0 0 75 31" fill="none" xmlns="http://www.w3.org/2000/svg">
<path d="M65.4969 2.42104C65.6803 2.40813 65.8432 2.37043 65.9865 2.30769C66.129 2.24572 66.2439 2.15019 66.3281 2.01928C66.4136 1.88966 66.4562 1.70789 66.4562 1.47602C66.4562 1.28005 66.4172 1.12332 66.3423 1.00635C66.2656 0.890419 66.1677 0.801081 66.0467 0.737822C65.9261 0.676111 65.7874 0.632733 65.6307 0.611561C65.5633 0.601233 65.4964 0.594778 65.4301 0.589355H63.9614V2.44067H64.9137C65.1194 2.44067 65.3136 2.43447 65.4969 2.42104ZM62.0505 5.82105C62.4215 6.20551 62.8599 6.50683 63.3652 6.72631C63.87 6.94552 64.4177 7.05448 65.0069 7.05448C65.5891 7.05448 66.1293 6.94526 66.6302 6.72631C67.1311 6.50683 67.5669 6.20551 67.9382 5.82105C68.3088 5.4371 68.5998 4.98292 68.8102 4.46007C69.0199 3.93643 69.1257 3.36658 69.1257 2.74922C69.1257 2.15096 69.0199 1.59195 68.8102 1.07323C68.7415 0.903588 68.6607 0.744277 68.5747 0.589355H67.1476C67.2933 0.836713 67.3681 1.14449 67.3681 1.51579C67.3681 2.04329 67.2207 2.4306 66.9251 2.67537C66.6302 2.92144 66.2643 3.06706 65.8254 3.11199L67.5024 5.70021H66.5225L64.9273 3.17887H63.9617V5.70021H63.0505V0.589355H61.414C61.3283 0.744277 61.2474 0.903588 61.179 1.07348C60.9694 1.59195 60.8638 2.15096 60.8638 2.74948C60.8638 3.36709 60.9691 3.93695 61.179 4.46032C61.3887 4.98292 61.6797 5.4371 62.0505 5.82105ZM26.7106 10.62C25.4394 10.62 24.7661 11.6128 24.7519 12.6291H28.8379C28.8379 11.431 28.0798 10.62 26.7106 10.62ZM69.5409 0.589355C69.5716 0.652615 69.6057 0.713034 69.6344 0.778101C69.9021 1.38643 70.0369 2.04355 70.0369 2.74922C70.0369 3.47502 69.9024 4.14248 69.6344 4.75571C69.3666 5.36635 69.0049 5.89877 68.5481 6.35011C68.0919 6.8017 67.5597 7.15337 66.9524 7.40331C66.3446 7.65351 65.6963 7.779 65.0066 7.779C64.3185 7.779 63.6678 7.65377 63.0564 7.40331C62.444 7.15363 61.9074 6.8017 61.4465 6.35011C60.9861 5.89851 60.6221 5.3661 60.3543 4.75571C60.0861 4.14248 59.9513 3.47502 59.9513 2.74922C59.9513 2.04355 60.0858 1.38643 60.3543 0.778101C60.383 0.713034 60.4173 0.652615 60.4481 0.589355H0.922119L7.95994 30.5894C22.7361 21.0867 36.9372 30.2188 37.5083 30.5672H37.5099C37.5112 30.5661 37.5127 30.5653 37.5143 30.5646H37.5215C37.5225 30.5653 37.5246 30.5661 37.5256 30.5672H37.528C38.0981 30.2188 52.3 21.0867 67.0759 30.5894L74.1131 0.589355H69.5409ZM20.2617 18.8027H10.6419V8.78289H14.9668V16.0763H20.2617V18.8027ZM33.2005 14.6456H24.7593C24.7593 15.9498 25.8634 16.9336 27.3349 16.9336C28.21 16.9336 29.007 16.6441 29.5702 15.861H32.9364C31.8362 18.389 29.7021 19.1079 26.7927 19.1079C23.009 19.1079 20.3338 17.059 20.3338 13.8137C20.3338 10.3476 22.969 8.519 26.7927 8.519C31.0706 8.519 33.2155 11.2911 33.2155 13.9593C33.2152 14.1819 33.2325 14.4042 33.2005 14.6456ZM41.0307 18.8187H37.3859L31.9441 8.77462H36.8551L39.9778 14.8801L40.0638 15.0642L40.142 14.8801L43.0625 8.77437H46.0115L41.0307 18.8187ZM50.642 18.7991H46.4705V8.75578H50.642V18.7991ZM53.7759 10.0145L52.5192 11.3814H51.9966L52.5726 9.89109H51.4213V7.90371H53.7759V10.0145ZM59.2505 19.0852C54.7929 19.0852 53.9816 16.5098 53.9816 15.8718H57.2094C57.2094 16.2467 57.7173 16.6963 58.1459 16.8791C58.4986 17.0301 58.8916 17.0598 59.2593 17.0598C60.1682 17.0598 60.9138 16.8393 60.9138 16.3115C60.9138 15.6689 60.1503 15.5264 59.3081 15.4055C57.016 15.075 53.8037 14.69 53.8037 12.1261C53.8037 9.73462 56.4149 8.51745 59.187 8.51745C63.6247 8.51745 64.8011 10.9758 64.8011 11.6877H61.5206C61.5206 11.4752 61.3587 11.0672 60.9115 10.8338C60.5797 10.6605 60.092 10.5203 59.6205 10.5203C58.3948 10.5203 57.7052 10.7754 57.7052 11.337C57.7052 11.7958 58.3269 12.0233 59.2195 12.1764C61.5493 12.5764 65.1269 12.7148 65.1269 15.5501C65.1267 16.9904 63.8796 19.0852 59.2505 19.0852Z" fill="#020D20" fill-opacity="0.43"/>
</svg>
