<svg width="141" height="23" viewBox="0 0 141 23" fill="none" xmlns="http://www.w3.org/2000/svg">
<path d="M21.2978 11.7034C21.2978 17.5395 16.5989 22.2708 10.8024 22.2708C5.00588 22.2708 0.307373 17.5409 0.307373 11.7034C0.307373 5.86591 5.00623 1.1364 10.8024 1.1364C16.5985 1.1364 21.2978 5.86733 21.2978 11.7034ZM32.8113 11.7034C32.8113 17.1973 30.4617 21.6507 27.5636 21.6507C24.6655 21.6507 22.3159 17.1959 22.3159 11.7034C22.3159 6.21088 24.6655 1.75614 27.5636 1.75614C30.4617 1.75614 32.8113 6.21088 32.8113 11.7034ZM37.5205 11.7034C37.5205 16.6257 36.694 20.6157 35.6748 20.6157C34.6556 20.6157 33.8291 16.6243 33.8291 11.7034C33.8291 6.78251 34.6556 2.79107 35.6752 2.79107C36.6948 2.79107 37.5205 6.78144 37.5205 11.7034ZM66.4859 2.05265L66.5151 2.04623V1.81993H60.5465L55.0045 14.8456L49.4624 1.81993H43.0305V2.04623L43.0593 2.05265C44.1488 2.29855 44.7019 2.66526 44.7019 3.98779V19.4707C44.7019 20.7932 44.1466 21.1599 43.0572 21.4058L43.0283 21.4122V21.6392H47.3922V21.4129L47.3633 21.4065C46.2739 21.1606 45.7208 20.7939 45.7208 19.4714V4.88586L52.8402 21.6392H53.2439L60.5707 4.41865V19.8538C60.4774 20.8983 59.9293 21.2209 58.9428 21.4436L58.9136 21.4504V21.6749H66.5151V21.4504L66.4859 21.4436C65.4984 21.2209 64.9371 20.8983 64.8437 19.8538L64.8387 3.98779H64.8437C64.8437 2.66526 65.3968 2.29855 66.4859 2.05265ZM69.9581 12.3092C70.0825 9.52735 71.0814 7.51951 72.7578 7.48494C73.2749 7.49349 73.7087 7.66313 74.0458 7.98957C74.7621 8.68486 75.0989 10.1378 75.0469 12.3092H69.9581ZM69.8829 13.0933H78.7924V13.0559C78.7671 10.9286 78.1509 9.27396 76.9628 8.13782C75.9357 7.156 74.415 6.61573 72.8177 6.61573H72.7821C71.9531 6.61573 70.9364 6.81673 70.2129 7.18094C69.3893 7.56227 68.663 8.13248 68.0586 8.88087C67.0857 10.0865 66.4963 11.7159 66.353 13.5469C66.3483 13.6018 66.3444 13.6567 66.3405 13.7116C66.3366 13.7665 66.3341 13.8157 66.3316 13.868C66.319 14.1255 66.3147 14.3833 66.3188 14.641C66.4154 18.7882 68.6556 22.1025 72.6345 22.1025C76.127 22.1025 78.1609 19.5494 78.668 16.1225L78.4118 16.0323C77.5209 17.8741 75.9207 18.9903 74.0996 18.8541C71.6135 18.6681 69.709 16.1474 69.8819 13.094L69.8829 13.0933ZM88.8658 18.7134C88.5736 19.4065 87.9638 19.7879 87.1466 19.7879C86.3295 19.7879 85.5825 19.2269 85.0518 18.2077C84.4816 17.1136 84.1816 15.5669 84.1816 13.7348C84.1816 9.9215 85.3676 7.455 87.2033 7.455C87.972 7.455 88.5771 7.83633 88.8658 8.50169V18.7134ZM94.776 21.4318C93.6866 21.1742 93.1335 20.7904 93.1335 19.4005V0.907959L86.5144 2.85807V3.09684L86.5551 3.09363C87.4681 3.01986 88.0875 3.14602 88.4471 3.47817C88.7286 3.73832 88.8658 4.13747 88.8658 4.69912V7.2344C88.2133 6.81779 87.4371 6.61501 86.4952 6.61501C84.585 6.61501 82.8391 7.41936 81.58 8.88016C80.2675 10.4026 79.5736 12.4832 79.5736 14.8962C79.573 19.2059 81.6948 22.1025 84.8523 22.1025C86.6994 22.1025 88.1855 21.0904 88.8658 19.3834V21.6749H94.8049V21.4375L94.776 21.4318ZM100.453 3.42293C100.453 2.07724 99.4382 1.06227 98.0921 1.06227C96.7525 1.06227 95.7044 2.09933 95.7044 3.42293C95.7044 4.74652 96.7536 5.78358 98.0921 5.78358C99.4382 5.78358 100.453 4.76861 100.453 3.42293ZM102.015 21.4318C100.926 21.1742 100.373 20.7904 100.373 19.4005H100.368V6.65885L94.4285 8.36412V8.59577L94.4642 8.59898C95.7493 8.71338 96.101 9.156 96.101 10.6578V21.6749H102.045V21.4375L102.015 21.4318ZM117.234 21.4318C116.145 21.1742 115.592 20.7904 115.592 19.4005V6.65885L109.937 8.30782V8.54017L109.97 8.54374C111.021 8.65422 111.324 9.12214 111.324 10.6307V18.6849C110.974 19.378 110.317 19.7896 109.521 19.8174C108.23 19.8174 107.519 18.9454 107.519 17.362V6.65921L101.579 8.36448V8.59577L101.615 8.59898C102.9 8.71302 103.252 9.15564 103.252 10.6578V17.4742C103.249 17.9501 103.29 18.4252 103.376 18.8933L103.483 19.3584C103.986 21.1603 105.303 22.1025 107.367 22.1025C109.116 22.1025 110.648 21.0202 111.323 19.3267V21.6788H117.262V21.4415L117.234 21.4318ZM140.307 21.6749V21.4372L140.279 21.4304C139.096 21.1578 138.636 20.6439 138.636 19.5976V10.9304C138.636 8.22799 137.118 6.61501 134.576 6.61501C132.723 6.61501 131.16 7.68593 130.558 9.35415C130.08 7.5865 128.705 6.61501 126.672 6.61501C124.885 6.61501 123.486 7.55764 122.885 9.14994V6.65992L116.946 8.29534V8.52841L116.981 8.53162C118.251 8.64424 118.618 9.09969 118.618 10.563V21.6749H124.16V21.4375L124.131 21.4304C123.188 21.2087 122.883 20.8046 122.883 19.7675V9.83312C123.133 9.25044 123.636 8.56013 124.63 8.56013C125.864 8.56013 126.49 9.41544 126.49 11.1004V21.6749H132.033V21.4375L132.004 21.4304C131.061 21.2087 130.756 20.8046 130.756 19.7675V10.9293C130.759 10.5989 130.733 10.2688 130.678 9.94288C130.942 9.3096 131.474 8.56013 132.509 8.56013C133.761 8.56013 134.369 9.39085 134.369 11.1004V21.6749H140.307Z" fill="#020D20" fill-opacity="0.43"/>
</svg>
