<svg width="106" height="31" viewBox="0 0 106 31" fill="none" xmlns="http://www.w3.org/2000/svg">
<path d="M23.1809 6.03607C23.0778 6.03607 20.827 5.86424 20.827 5.86424C20.827 5.86424 19.2634 4.30067 19.0744 4.14604C19.0057 4.07731 18.9198 4.04294 18.851 4.04294L17.5967 29.9192L26.6689 27.9604C26.6689 27.9604 23.4902 6.44843 23.473 6.2938C23.4043 6.13916 23.284 6.07043 23.1809 6.03607Z" fill="#020D20" fill-opacity="0.43"/>
<path fill-rule="evenodd" clip-rule="evenodd" d="M23.1823 6.07044C23.2853 6.07044 23.4228 6.13917 23.44 6.29381C23.4457 6.34554 23.8053 8.78368 24.2807 12.007C25.2263 18.4188 26.6301 27.9375 26.6187 27.9604L17.5465 29.9192L0.828369 26.792C0.828369 26.792 2.97613 10.177 3.06204 9.59277C3.16513 8.81957 3.18231 8.80239 4.00705 8.54466C4.07224 8.51672 4.41001 8.41307 4.94101 8.25011C5.38969 8.11242 5.97634 7.93239 6.65309 7.71992C7.2201 5.31443 9.0414 0.589355 12.8215 0.589355C13.3026 0.589355 13.8867 0.864269 14.3335 1.44846H14.4881C16.1204 1.44846 17.0311 2.84021 17.5637 4.36941C18.0964 4.19759 18.4228 4.0945 18.44 4.0945C18.5775 4.06014 18.9039 4.00859 19.0757 4.18041C19.2647 4.33505 20.8283 5.89862 20.8283 5.89862C20.8283 5.89862 23.0792 6.07044 23.1823 6.07044ZM15.227 5.0567C15.7252 4.88488 16.2235 4.73024 16.6359 4.60996C16.2751 3.51031 15.7424 2.56529 14.8833 2.4622C15.1067 3.06357 15.227 3.81959 15.227 4.74742V5.0567ZM14.2132 5.19415C14.2132 4.06014 14.0586 3.2354 13.8352 2.65121C12.9417 3.04639 11.8593 4.11168 11.2923 6.27662C11.9002 6.08085 12.4958 5.89743 13.0753 5.71897C13.4621 5.59983 13.8418 5.4829 14.2132 5.36597V5.19415ZM13.2166 1.75774C13.0792 1.65464 12.9074 1.58592 12.7356 1.58592C10.0208 1.58592 8.4744 5.15979 7.85584 7.3591C8.25257 7.22993 8.65922 7.10571 9.07577 6.97847C9.43495 6.86875 9.8015 6.75678 10.1754 6.63745C10.7081 3.75086 11.9967 2.32475 13.2166 1.75774ZM13.3887 14.3692L14.4884 11.0531C14.4884 11.0531 13.7324 10.6064 12.2547 10.6235C8.28565 10.6235 6.32689 13.2696 6.32689 16.0015C6.32689 17.8377 7.34871 18.6683 8.24295 19.3951C8.93865 19.9606 9.55712 20.4634 9.55712 21.328C9.55712 21.8091 9.21348 22.462 8.37156 22.462C7.10008 22.462 5.58806 21.1562 5.58806 21.1562L4.81487 23.6991C4.81487 23.6991 6.25816 25.486 9.14475 25.486C11.5331 25.486 13.3028 23.6819 13.3028 20.8812C13.3028 18.7283 11.8548 17.6645 10.7118 16.8248C9.96652 16.2773 9.35093 15.8251 9.35093 15.2283C9.35093 14.9534 9.43685 13.8366 11.2066 13.8366C12.3922 13.8366 13.3887 14.3692 13.3887 14.3692Z" fill="#020D20" fill-opacity="0.43"/>
<path d="M37.2028 17.2904C36.2922 16.8093 35.8283 16.3798 35.8283 15.8128C35.8283 15.0911 36.4812 14.6272 37.4949 14.6272C38.6805 14.6272 39.7286 15.1083 39.7286 15.1083L40.5533 12.5825C40.5533 12.5825 39.7973 11.9983 37.5636 11.9983C34.4537 11.9983 32.2887 13.7853 32.2887 16.2939C32.2887 17.72 33.3025 18.8024 34.6427 19.5756C35.7423 20.177 36.1203 20.6237 36.1203 21.2767C36.1203 21.9468 35.5705 22.4966 34.5568 22.4966C33.0619 22.4966 31.6358 21.7234 31.6358 21.7234L30.7595 24.2492C30.7595 24.2492 32.0654 25.1255 34.2647 25.1255C37.4605 25.1255 39.7801 23.5447 39.7801 20.7097C39.7458 19.1633 38.5946 18.098 37.2028 17.2904ZM49.9519 11.964C48.3712 11.964 47.1341 12.72 46.189 13.854L46.1547 13.8368L47.5292 6.68908H43.9726L40.5018 24.9021H44.0585L45.244 18.6822C45.7079 16.3282 46.9279 14.8678 48.0619 14.8678C48.8694 14.8678 49.1787 15.4176 49.1787 16.1908C49.1787 16.6719 49.1444 17.2904 49.0241 17.7715L47.6839 24.9021H51.2406L52.6323 17.5482C52.787 16.775 52.8901 15.8471 52.8901 15.2114C52.8729 13.1667 51.8248 11.964 49.9519 11.964ZM60.9313 11.964C56.6357 11.964 53.8007 15.83 53.8007 20.1427C53.8007 22.8918 55.5017 25.1255 58.6976 25.1255C62.9072 25.1255 65.7422 21.3626 65.7422 16.9468C65.7594 14.3867 64.2818 11.964 60.9313 11.964ZM59.1787 22.4107C57.9588 22.4107 57.4605 21.3798 57.4605 20.0739C57.4605 18.0293 58.5086 14.7131 60.4502 14.7131C61.7045 14.7131 62.134 15.8128 62.134 16.8609C62.134 19.043 61.0515 22.4107 59.1787 22.4107ZM74.8659 11.964C72.4604 11.964 71.1031 14.0946 71.1031 14.0946H71.0687L71.2749 12.1873H68.1134C67.9587 13.476 67.6666 15.4519 67.3917 16.9124L64.9347 29.9536H68.4914L69.4879 24.6787H69.5739C69.5739 24.6787 70.3127 25.1426 71.6529 25.1426C75.8453 25.1426 78.5773 20.8471 78.5773 16.5172C78.5601 14.1117 77.4776 11.964 74.8659 11.964ZM71.4639 22.445C70.536 22.445 69.9862 21.9124 69.9862 21.9124L70.5704 18.5963C70.9828 16.3626 72.1512 14.9021 73.3883 14.9021C74.4879 14.9021 74.8144 15.9159 74.8144 16.8609C74.8316 19.1633 73.457 22.445 71.4639 22.445ZM83.646 6.8609C82.512 6.8609 81.6013 7.77155 81.6013 8.92275C81.6013 9.97086 82.2714 10.7097 83.2851 10.7097H83.3195C84.4364 10.7097 85.3814 9.95368 85.3985 8.64784C85.4157 7.59973 84.7113 6.8609 83.646 6.8609ZM78.6632 24.8849H82.2199L84.6254 12.2389H81.0515L78.6632 24.8849ZM93.6975 12.2217H91.2233L91.3435 11.6375C91.5497 10.4176 92.2714 9.35231 93.4741 9.35231C94.1099 9.35231 94.6081 9.54131 94.6081 9.54131L95.2954 6.74063C95.2954 6.74063 94.6941 6.43135 93.3539 6.43135C92.0996 6.43135 90.8281 6.79218 89.8659 7.61692C88.646 8.64784 88.0789 10.1427 87.804 11.6547L87.701 12.2389H86.0343L85.5016 14.9365H87.1683L85.2783 24.9021H88.835L90.725 14.9365H93.182L93.6975 12.2217ZM102.271 12.2389C102.271 12.2389 100.038 17.8574 99.0583 20.933H99.0239C98.9552 19.9365 98.1477 12.2389 98.1477 12.2389H94.4019L96.5497 23.8196C96.5841 24.0773 96.5669 24.232 96.4638 24.4038C96.0514 25.2114 95.347 25.9846 94.5222 26.5516C93.8521 27.0327 93.0961 27.3591 92.4947 27.5653L93.4913 30.5894C94.213 30.4347 95.725 29.8333 96.9793 28.6478C98.5944 27.1358 100.106 24.7818 101.653 21.5859L106 12.2217H102.271V12.2389Z" fill="#020D20" fill-opacity="0.43"/>
</svg>
