<svg width="92" height="31" viewBox="0 0 92 31" fill="none" xmlns="http://www.w3.org/2000/svg">
<path fill-rule="evenodd" clip-rule="evenodd" d="M10.1202 2.69293H7.46645H3.35673H0.863629L0.824666 6.26213H0.420532V2.25468V0.608837C1.81803 0.677008 6.88214 0.720837 12.1362 0.720837C18.2667 0.720837 22.2108 0.657535 23.7593 0.613711V2.43484L23.7885 6.49101H23.3892C23.3892 6.15989 23.321 4.81594 23.321 4.68447C23.321 4.63578 23.2382 2.82927 23.2236 2.69293H21.4658H14.1375V27.7067C14.1375 27.7408 14.1764 29.3428 14.1813 29.6545C14.3858 29.6837 16.3384 29.8151 16.6939 29.8151H16.8302V30.4968H16.4845C15.3743 30.4968 13.5629 30.3508 12.3114 30.3508C11.06 30.3508 9.29245 30.4774 7.9826 30.4968H7.57847V29.7713H7.79269C8.34779 29.7713 9.70635 29.6593 10.0618 29.6301H10.1154V2.69293H10.1202ZM33.7901 30.5455C32.7627 30.5455 31.0146 30.3751 29.7047 30.3751C28.3949 30.3751 26.6516 30.5455 25.3856 30.5455C25.2785 30.5455 25.0886 30.5212 24.9863 30.5212V29.8103C25.2347 29.8103 26.3546 29.7031 26.6662 29.6788C26.9524 29.6723 27.2375 29.6414 27.5184 29.5863C27.5184 29.5863 27.5184 28.7293 27.5184 27.4048C27.5184 22.813 27.5622 9.84599 27.5184 3.97357C27.5184 3.35516 27.5184 1.78722 27.5184 1.53888C27.2798 1.51454 26.9487 1.48532 26.715 1.45124C26.4812 1.41715 25.1957 1.31976 24.9863 1.31002V0.599104C26.1988 0.599104 28.0004 0.720837 29.4612 0.720837C30.922 0.720837 32.7481 0.599104 34.1845 0.599104V1.33924L33.386 1.39281C32.9672 1.43176 31.7985 1.56323 31.5112 1.5827V3.86643C31.5112 9.12044 31.5112 22.8568 31.5112 27.5022V29.036C31.5112 29.3866 31.5112 29.6009 31.5112 29.6155C31.8111 29.666 32.1134 29.7001 32.4169 29.7178C32.7432 29.7567 34.0725 29.8151 34.1115 29.8249H34.204V30.5358C34.1164 30.5358 33.907 30.5601 33.8144 30.5601L33.7901 30.5455ZM43.0418 10.5812C43.0418 10.5812 42.3796 14.243 41.4057 19.4093C40.9188 22.1995 39.8524 29.148 39.7794 29.635C40.4819 29.7303 41.1889 29.7888 41.8976 29.8103H42.1946V30.5163C42.0582 30.5163 41.7417 30.5163 41.7076 30.5163C40.5633 30.492 39.7599 30.4043 38.5036 30.4043C38.1774 30.4043 36.4536 30.492 35.8498 30.5115C35.5966 30.5115 35.2412 30.5115 35.173 30.5115V29.8103C35.2314 29.8103 35.3531 29.8103 35.4262 29.7811C35.9764 29.7811 36.8188 29.6739 37.5346 29.5814C37.593 29.2357 38.2115 25.7979 38.4062 24.5806C39.1659 20.5488 41.4057 7.08019 41.6833 5.26392C41.9316 3.31619 42.214 0.881516 42.2433 0.589355C42.8324 0.589355 43.8599 0.589355 43.8599 0.589355C43.8599 0.589355 45.8368 6.73934 46.1582 7.64016C46.4796 8.54099 52.5322 24.1131 52.5322 24.1131C52.5322 24.1131 55.3759 17.4032 57.8884 10.2063C58.3997 8.74551 59.0717 6.84647 59.5684 5.30776L61.0876 0.589355H62.6458C62.6458 0.589355 63.0354 3.33566 63.1717 4.56274C63.5661 8.12709 66.1712 22.6085 67.0672 27.3707C67.2912 28.5637 67.4665 29.596 67.4665 29.596C67.7343 29.596 68.786 29.7177 69.4142 29.7713L69.9741 29.8005V30.5163C69.9741 30.5163 69.6917 30.5163 69.5359 30.5163C68.1384 30.5163 65.9667 30.3849 64.6227 30.3849C63.4298 30.3849 62.2806 30.4871 61.0876 30.5115C60.8831 30.5115 60.6786 30.5115 60.4741 30.5115V29.8151C60.4741 29.8151 60.6396 29.8151 60.7224 29.8151C61.3067 29.7859 62.8503 29.635 63.0012 29.6252C63.0012 29.3672 62.9185 28.4663 62.7967 27.5411C62.7091 26.8887 62.5581 25.7784 62.4023 24.6828C62.0615 22.5549 60.4887 13.7269 60.0212 11.2776C59.9433 10.8783 59.8946 10.6494 59.8946 10.6494C59.8946 10.6494 55.0253 23.1539 54.0514 25.6178L53.8615 26.1047C52.9266 28.4761 52.1378 30.5894 52.1378 30.5894H50.75L43.2025 11.0195L43.0224 10.5666L43.0418 10.5812ZM91.2483 6.46179H90.849V6.25241C90.8052 5.73139 90.7176 4.25598 90.6056 3.01917C90.6056 2.90717 90.6056 2.81951 90.6056 2.81951C90.3621 2.81951 89.3833 2.78056 89.3639 2.76595C89.3444 2.75134 88.5701 2.76595 88.5507 2.73186C88.5312 2.69778 85.9797 2.73186 83.3356 2.73186H78.6659C78.3981 2.73186 77.4389 2.77082 77.4389 2.77082V14.54H84.9961L87.046 14.4816C87.1629 14.4816 88.5068 14.4037 88.5653 14.3842C88.5773 14.3114 88.5952 14.2398 88.6188 14.1699C88.726 13.459 88.8672 12.7822 88.9013 12.2563C88.92 12.1305 88.9314 12.0036 88.9353 11.8765H89.3687C89.3687 11.9301 89.3687 12.0664 89.3687 12.2612C89.3687 12.9672 89.3103 14.4426 89.3152 15.4068C89.3152 16.7945 89.3541 18.0508 89.359 18.6789C89.359 18.8591 89.359 19.1659 89.359 19.1659H88.872C88.872 19.1026 88.872 19.0295 88.872 18.9565C88.7893 18.1579 88.7211 17.5931 88.5945 16.775C88.5945 16.7312 88.5945 16.5851 88.5604 16.4926C88.3169 16.4926 87.679 16.4537 87.3431 16.4439C87.197 16.4439 85.3515 16.4439 83.2821 16.4196C82.4299 16.4196 80.9058 16.4585 80.2582 16.4585C79.4986 16.4585 78.2472 16.5072 77.434 16.5365V27.21L77.4389 28.5491L82.0258 28.6319H88.5604C88.5896 28.6319 90.0553 28.5735 90.5081 28.5832H90.8003C90.8441 28.2375 90.8977 27.5411 90.9513 26.874C90.9513 26.7961 91.1217 25.0237 91.1217 24.5465H91.521C91.521 24.9994 91.4382 30.5894 91.4382 30.5894C90.6981 30.5894 88.4387 30.5893 85.6485 30.5455C83.954 30.5212 82.0696 30.5212 80.2095 30.4968C78.7 30.4725 77.2051 30.4189 75.8271 30.4238C73.8794 30.4238 71.9998 30.5504 71.2597 30.5504H70.7338V29.8443H70.8652C71.6984 29.8302 72.5297 29.7603 73.3535 29.635C73.3535 29.4937 73.3973 27.7554 73.3973 27.7164C73.3973 27.6775 73.3973 5.61939 73.3973 4.62604C73.3973 3.55966 73.3973 1.78236 73.3973 1.62167C73.1897 1.60377 72.9833 1.5745 72.7789 1.53401C72.3601 1.47558 71.5372 1.40254 71.0941 1.37333C70.9838 1.38021 70.8732 1.38021 70.763 1.37333C70.763 1.37333 70.763 0.681879 70.763 0.672141C70.8652 0.672141 71.0697 0.672141 71.4398 0.672141C72.2189 0.672141 73.6505 0.789005 75.4035 0.793874C76.5039 0.793874 78.2812 0.740304 79.5521 0.725696C81.3684 0.725696 82.7416 0.725698 84.4994 0.696482L90.7711 0.652659H91.2045V0.793874C91.2045 1.01786 91.2045 1.40741 91.2045 1.8846C91.2045 3.37462 91.2483 5.7119 91.2483 6.47638V6.46179Z" fill="#020D20" fill-opacity="0.43"/>
</svg>
